<svg width="365" height="368" viewBox="0 0 365 368" fill="none" xmlns="http://www.w3.org/2000/svg">
<path d="M196.014 141.066L187.574 106.836L173.832 107.103L166.736 141.636C163.88 155.514 153.298 166.515 139.542 169.909L105.311 178.348L105.578 192.091L140.111 199.193C153.989 202.043 164.991 212.624 168.384 226.381L176.818 260.612L190.56 260.344L197.662 225.817C200.518 211.933 211.1 200.932 224.856 197.544L259.093 189.105L258.826 175.362L224.287 168.26C210.409 165.404 199.407 154.823 196.014 141.066Z" fill="black"/>
<path d="M77.1526 185.768L9.24879e-05 185.839C-0.0487388 136.309 19.2402 89.684 54.312 54.5549C89.378 19.4201 136.065 -0.0224977 185.499 1.95366e-05L327.808 0.618249L329.308 77.7372L185.327 77.1573C156.661 77.0608 129.423 88.5134 108.915 109.056C88.4069 129.604 77.1285 156.85 77.1526 185.768Z" fill="black"/>
<path d="M182.421 367.416C181.247 367.439 180.078 367.45 178.903 367.45L36.5938 366.832L35.0939 289.719L179.104 290.298C179.775 290.296 180.452 290.289 181.124 290.276C239.761 289.135 287.3 240.844 287.249 181.682L364.402 181.611C364.445 231.141 345.162 277.766 310.09 312.901C275.859 347.197 230.638 366.478 182.421 367.416Z" fill="black"/>
</svg>
