<svg width="1949" height="368" viewBox="0 0 1949 368" fill="none" xmlns="http://www.w3.org/2000/svg">
<path d="M364.401 181.61C364.444 231.141 345.161 277.766 310.09 312.9C275.859 347.197 230.638 366.478 182.422 367.416C181.247 367.439 180.078 367.45 178.903 367.45L36.5938 366.832L35.0938 289.719L179.104 290.298C179.775 290.296 180.453 290.289 181.124 290.276C239.762 289.136 287.3 240.844 287.249 181.682L364.401 181.61ZM566.472 68.0869C602.729 68.0869 631.742 78.3072 653.508 98.748C675.274 119.195 686.159 147.622 686.159 184.03C686.159 220.137 675.354 248.386 653.762 268.774C632.164 289.169 603.291 299.366 567.144 299.366C530.55 299.366 501.451 289.221 479.853 268.925C458.254 248.64 447.461 220.699 447.461 185.096C447.461 162.317 451.206 143.195 458.706 127.737C464.297 116.348 471.936 106.127 481.612 97.0703C491.294 88.0189 501.896 81.305 513.425 76.9355C528.755 71.0383 546.442 68.0869 566.472 68.0869ZM1518.26 68.0869C1536.5 68.0869 1552.59 70.7551 1566.52 76.0967C1580.46 81.4384 1591.17 89.2922 1598.66 99.6631C1606.16 110.04 1610.19 121.788 1610.75 134.907L1579.53 137.043C1577.85 122.91 1572.18 112.227 1562.49 105.005C1552.81 97.7823 1538.52 94.1709 1519.6 94.1709C1499.9 94.1709 1485.56 97.4518 1476.54 104.015C1467.54 110.572 1463.03 118.483 1463.03 127.737C1463.03 135.77 1466.22 142.379 1472.6 147.57C1478.87 152.756 1495.23 158.075 1521.7 163.509C1548.17 168.955 1566.32 173.712 1576.17 177.774C1590.5 183.776 1601.07 191.38 1607.9 200.582C1614.72 209.79 1618.14 220.393 1618.14 232.39C1618.14 244.288 1614.39 255.504 1606.89 266.031C1599.39 276.558 1588.62 284.742 1574.58 290.593C1560.53 296.438 1544.73 299.366 1527.16 299.366C1504.89 299.366 1486.23 296.409 1471.17 290.518C1456.12 284.62 1444.32 275.742 1435.76 263.896C1427.19 252.049 1422.69 238.646 1422.24 223.697L1452.96 221.255C1454.41 232.442 1457.8 241.621 1463.12 248.791C1468.43 255.961 1476.68 261.76 1487.88 266.182C1499.06 270.609 1511.66 272.819 1525.65 272.819C1538.07 272.819 1549.03 271.142 1558.55 267.785C1568.06 264.429 1575.14 259.827 1579.79 253.977C1584.43 248.131 1586.75 241.748 1586.75 234.832C1586.75 227.812 1584.51 221.689 1580.03 216.445C1575.55 211.208 1568.17 206.809 1557.88 203.25C1551.27 200.912 1536.67 197.277 1514.06 192.347C1491.46 187.41 1475.62 182.757 1466.56 178.388C1454.81 172.791 1446.05 165.853 1440.29 157.56C1434.52 149.272 1431.64 139.995 1431.64 129.717C1431.64 118.431 1435.17 107.881 1442.22 98.0654C1449.27 88.2502 1459.57 80.8019 1473.11 75.7148C1486.64 70.6278 1501.7 68.0869 1518.26 68.0869ZM1769.39 68.0859C1794.01 68.0859 1814.71 73.7806 1831.5 85.1699C1848.29 96.5652 1859.97 112.579 1866.58 133.229L1834.52 140.092C1828.81 123.824 1820.52 111.971 1809.67 104.546C1798.82 97.1266 1785.17 93.4112 1768.71 93.4111C1749.8 93.4111 1733.99 97.5264 1721.29 105.768C1708.59 114.003 1699.67 125.068 1694.52 138.952C1689.37 152.83 1686.8 167.148 1686.8 181.894C1686.8 200.911 1689.84 217.515 1695.95 231.705C1702.05 245.89 1711.53 256.493 1724.4 263.513C1737.26 270.533 1751.2 274.04 1766.2 274.04C1784.43 274.04 1799.88 269.26 1812.53 259.699C1825.17 250.139 1833.73 235.947 1838.21 217.133L1870.78 224.61C1863.95 248.923 1851.66 267.454 1833.93 280.215C1816.19 292.982 1794.51 299.365 1768.88 299.365C1742.36 299.365 1720.78 294.458 1704.17 284.643C1687.55 274.827 1674.9 260.613 1666.23 242.001C1657.56 223.389 1653.22 203.405 1653.22 182.044C1653.22 158.756 1658.11 138.442 1667.91 121.098C1677.7 103.759 1691.63 90.5871 1709.71 81.5879C1727.78 72.5887 1747.67 68.086 1769.39 68.0859ZM1136.7 109.735H1003.92V159.315H1127.47V196.997H1003.92V257.868H1141.41V295.549H954.234V71.8975H1136.7V109.735ZM1333.1 221.251V71.8975H1379.27V295.549H1329.41L1230.21 149.702V295.549H1184.04V71.8975H1232.39L1333.1 221.251ZM1949 295.548H1916.43V71.8965H1949V295.548ZM804.669 71.9014C834.885 71.9014 854.579 73.018 863.758 75.252C877.856 78.6144 889.661 85.9125 899.176 97.1455C908.69 108.39 913.441 122.905 913.441 140.701C913.441 154.429 910.698 165.975 905.218 175.333C899.737 184.691 892.77 192.041 884.32 197.377C875.871 202.719 867.282 206.254 858.555 207.984C846.685 210.114 829.514 211.186 807.019 211.186H774.621V295.547H724.931V71.9014H804.669ZM566.976 106.683C546.494 106.683 529.988 113.066 517.453 125.827C504.924 138.594 498.656 157.843 498.656 183.573C498.656 208.899 505.091 228.095 517.962 241.163C530.827 254.231 547.166 260.765 566.976 260.765C586.785 260.765 603.036 254.283 615.739 241.313C628.437 228.344 634.791 208.899 634.791 182.96C634.791 157.334 628.605 138.212 616.243 125.602C603.876 112.991 587.457 106.683 566.976 106.683ZM196.014 141.066C199.407 154.823 210.409 165.404 224.287 168.26L258.826 175.362L259.093 189.104L224.856 197.544C211.1 200.931 200.518 211.933 197.662 225.817L190.561 260.345L176.818 260.611L168.384 226.381C164.99 212.624 153.989 202.042 140.111 199.192L105.578 192.091L105.311 178.349L139.542 169.908C153.299 166.515 163.88 155.514 166.735 141.636L173.832 107.103L187.574 106.836L196.014 141.066ZM327.809 0.618164L329.309 77.7373L185.327 77.1572C156.661 77.0607 129.423 88.5131 108.915 109.056C88.4069 129.604 77.1282 156.85 77.1523 185.769L0 185.84C-0.0488313 136.309 19.2407 89.6838 54.3125 54.5547C89.3784 19.4201 136.066 -0.0224728 185.499 0L327.809 0.618164ZM774.621 173.197H801.815C821.4 173.197 834.491 172.029 841.095 169.69C847.698 167.352 852.872 163.689 856.622 158.706C860.372 153.723 862.247 147.924 862.247 141.314C862.247 133.178 859.614 126.464 854.354 121.175C849.099 115.891 842.437 112.58 834.381 111.261C828.443 110.242 816.527 109.733 798.627 109.733H774.621V173.197Z" fill="black"/>
</svg>
